<svg width="27" height="32" viewBox="0 0 27 32" fill="none" xmlns="http://www.w3.org/2000/svg">
<path fill-rule="evenodd" clip-rule="evenodd" d="M24 0H3C1.335 0 0 1.37143 0 3.04762V24.381C0 26.0571 1.335 27.4286 3 27.4286H9L13.5 32L18 27.4286H24C25.65 27.4286 27 26.0571 27 24.381V3.04762C27 1.37143 25.65 0 24 0ZM13.5 5.02857C15.735 5.02857 17.55 6.87238 17.55 9.14286C17.55 11.4133 15.735 13.2571 13.5 13.2571C11.265 13.2571 9.45 11.4133 9.45 9.14286C9.45 6.87238 11.265 5.02857 13.5 5.02857ZM4.5 19.9619V21.3333H22.5V19.9619C22.5 16.9143 16.5 15.2381 13.5 15.2381C10.5 15.2381 4.5 16.9143 4.5 19.9619Z" fill="black"/>
</svg>
