<svg width="24" height="24" viewBox="0 0 24 24" fill="none" xmlns="http://www.w3.org/2000/svg">
<path fill-rule="evenodd" clip-rule="evenodd" d="M6.54293 2.43909L4.86615 0.762312C2.05198 2.90812 0.199316 6.21477 0.0351562 9.967H2.3803C2.55618 6.85968 4.15088 4.13932 6.54293 2.43909ZM21.0711 9.967H23.4162C23.2403 6.21477 21.3877 2.90812 18.5852 0.762312L16.9202 2.43909C19.2888 4.13932 20.8952 6.85968 21.0711 9.967ZM18.7611 10.5533C18.7611 6.95349 16.8381 3.93998 13.4846 3.14263V2.34528C13.4846 1.37205 12.6989 0.586426 11.7257 0.586426C10.7525 0.586426 9.96684 1.37205 9.96684 2.34528V3.14263C6.60156 3.93998 4.69026 6.94176 4.69026 10.5533V16.4161L2.34512 18.7613V19.9339H21.1063V18.7613L18.7611 16.4161V10.5533ZM11.7257 23.4516C11.8899 23.4516 12.0423 23.4398 12.1947 23.4047C12.9569 23.2405 13.5784 22.7246 13.8832 22.021C14.0005 21.7396 14.0591 21.4347 14.0591 21.1064H9.36882C9.38055 22.3963 10.4241 23.4516 11.7257 23.4516Z" fill="#FFE65A"/>
</svg>
