<svg width="26" height="26" viewBox="0 0 26 26" fill="none" xmlns="http://www.w3.org/2000/svg">
<path fill-rule="evenodd" clip-rule="evenodd" d="M23.4 23.4H24.7C25.418 23.4 26 23.982 26 24.7C26 25.418 25.418 26 24.7 26H1.3C0.58203 26 0 25.418 0 24.7C0 23.982 0.58203 23.4 1.3 23.4H2.6V1.3C2.6 0.58203 3.18203 0 3.9 0H22.1C22.818 0 23.4 0.58203 23.4 1.3V23.4ZM10.4 7.8H9.1C8.38203 7.8 7.8 7.21797 7.8 6.5C7.8 5.78203 8.38203 5.2 9.1 5.2H10.4C11.118 5.2 11.7 5.78203 11.7 6.5C11.7 7.21797 11.118 7.8 10.4 7.8ZM15.6 7.8H16.9C17.618 7.8 18.2 7.21797 18.2 6.5C18.2 5.78203 17.618 5.2 16.9 5.2H15.6C14.882 5.2 14.3 5.78203 14.3 6.5C14.3 7.21797 14.882 7.8 15.6 7.8ZM15.6 13H16.9C17.618 13 18.2 12.418 18.2 11.7C18.2 10.982 17.618 10.4 16.9 10.4H15.6C14.882 10.4 14.3 10.982 14.3 11.7C14.3 12.418 14.882 13 15.6 13ZM9.1 13H10.4C11.118 13 11.7 12.418 11.7 11.7C11.7 10.982 11.118 10.4 10.4 10.4H9.1C8.38203 10.4 7.8 10.982 7.8 11.7C7.8 12.418 8.38203 13 9.1 13ZM14.3 23.4H11.7V18.2H14.3V23.4ZM16.9 23.4H20.8V2.6H5.2V23.4H9.1V16.9C9.1 16.182 9.68203 15.6 10.4 15.6H15.6C16.318 15.6 16.9 16.182 16.9 16.9V23.4Z" fill="black"/>
</svg>
