<svg width="35" height="32" viewBox="0 0 35 32" fill="none" xmlns="http://www.w3.org/2000/svg">
<path fill-rule="evenodd" clip-rule="evenodd" d="M5.508 0H28.764C31.8046 0.00337281 34.2686 2.46741 34.272 5.508V20.196C34.2686 23.2366 31.8046 25.7006 28.764 25.704H16.3511L9.35213 31.5402C8.9873 31.8446 8.4793 31.9103 8.049 31.7089C7.61871 31.5074 7.34387 31.0751 7.344 30.6V25.704H5.508C2.46741 25.7006 0.00337281 23.2366 0 20.196V5.508C0.00337281 2.46741 2.46741 0.00337281 5.508 0ZM7.344 12.852C7.344 14.204 8.44001 15.3 9.792 15.3C11.144 15.3 12.24 14.204 12.24 12.852C12.24 11.5 11.144 10.404 9.792 10.404C8.44001 10.404 7.344 11.5 7.344 12.852ZM17.136 15.3C15.784 15.3 14.688 14.204 14.688 12.852C14.688 11.5 15.784 10.404 17.136 10.404C18.488 10.404 19.584 11.5 19.584 12.852C19.584 14.204 18.488 15.3 17.136 15.3ZM22.032 12.852C22.032 14.204 23.128 15.3 24.48 15.3C25.832 15.3 26.928 14.204 26.928 12.852C26.928 11.5 25.832 10.404 24.48 10.404C23.128 10.404 22.032 11.5 22.032 12.852Z" fill="#111111"/>
</svg>
