<svg width="160" height="82" viewBox="0 0 160 82" fill="none" xmlns="http://www.w3.org/2000/svg">
<path fill-rule="evenodd" clip-rule="evenodd" d="M2.8 1.4C2.8 2.1732 2.1732 2.8 1.4 2.8C0.626801 2.8 0 2.1732 0 1.4C0 0.626801 0.626801 0 1.4 0C2.1732 0 2.8 0.626801 2.8 1.4ZM22.4 1.4C22.4 2.1732 21.7732 2.8 21 2.8C20.2268 2.8 19.6 2.1732 19.6 1.4C19.6 0.626801 20.2268 0 21 0C21.7732 0 22.4 0.626801 22.4 1.4ZM40.6 2.8C41.3732 2.8 42 2.1732 42 1.4C42 0.626801 41.3732 0 40.6 0C39.8268 0 39.2 0.626801 39.2 1.4C39.2 2.1732 39.8268 2.8 40.6 2.8ZM61.6 1.4C61.6 2.1732 60.9732 2.8 60.2 2.8C59.4268 2.8 58.8 2.1732 58.8 1.4C58.8 0.626801 59.4268 0 60.2 0C60.9732 0 61.6 0.626801 61.6 1.4ZM79.8 2.8C80.5732 2.8 81.2 2.1732 81.2 1.4C81.2 0.626801 80.5732 0 79.8 0C79.0268 0 78.4 0.626801 78.4 1.4C78.4 2.1732 79.0268 2.8 79.8 2.8ZM100.8 1.4C100.8 2.1732 100.173 2.8 99.4 2.8C98.6268 2.8 98 2.1732 98 1.4C98 0.626801 98.6268 0 99.4 0C100.173 0 100.8 0.626801 100.8 1.4ZM119 2.8C119.773 2.8 120.4 2.1732 120.4 1.4C120.4 0.626801 119.773 0 119 0C118.227 0 117.6 0.626801 117.6 1.4C117.6 2.1732 118.227 2.8 119 2.8ZM140 1.4C140 2.1732 139.373 2.8 138.6 2.8C137.827 2.8 137.2 2.1732 137.2 1.4C137.2 0.626801 137.827 0 138.6 0C139.373 0 140 0.626801 140 1.4ZM158.2 2.8C158.973 2.8 159.6 2.1732 159.6 1.4C159.6 0.626801 158.973 0 158.2 0C157.427 0 156.8 0.626801 156.8 1.4C156.8 2.1732 157.427 2.8 158.2 2.8ZM2.8 21C2.8 21.7732 2.1732 22.4 1.4 22.4C0.626801 22.4 0 21.7732 0 21C0 20.2268 0.626801 19.6 1.4 19.6C2.1732 19.6 2.8 20.2268 2.8 21ZM1.4 42C2.1732 42 2.8 41.3732 2.8 40.6C2.8 39.8268 2.1732 39.2 1.4 39.2C0.626801 39.2 0 39.8268 0 40.6C0 41.3732 0.626801 42 1.4 42ZM22.4 21C22.4 21.7732 21.7732 22.4 21 22.4C20.2268 22.4 19.6 21.7732 19.6 21C19.6 20.2268 20.2268 19.6 21 19.6C21.7732 19.6 22.4 20.2268 22.4 21ZM21 42C21.7732 42 22.4 41.3732 22.4 40.6C22.4 39.8268 21.7732 39.2 21 39.2C20.2268 39.2 19.6 39.8268 19.6 40.6C19.6 41.3732 20.2268 42 21 42ZM42 21C42 21.7732 41.3732 22.4 40.6 22.4C39.8268 22.4 39.2 21.7732 39.2 21C39.2 20.2268 39.8268 19.6 40.6 19.6C41.3732 19.6 42 20.2268 42 21ZM40.6 42C41.3732 42 42 41.3732 42 40.6C42 39.8268 41.3732 39.2 40.6 39.2C39.8268 39.2 39.2 39.8268 39.2 40.6C39.2 41.3732 39.8268 42 40.6 42ZM61.6 21C61.6 21.7732 60.9732 22.4 60.2 22.4C59.4268 22.4 58.8 21.7732 58.8 21C58.8 20.2268 59.4268 19.6 60.2 19.6C60.9732 19.6 61.6 20.2268 61.6 21ZM60.2 42C60.9732 42 61.6 41.3732 61.6 40.6C61.6 39.8268 60.9732 39.2 60.2 39.2C59.4268 39.2 58.8 39.8268 58.8 40.6C58.8 41.3732 59.4268 42 60.2 42ZM81.2 21C81.2 21.7732 80.5732 22.4 79.8 22.4C79.0268 22.4 78.4 21.7732 78.4 21C78.4 20.2268 79.0268 19.6 79.8 19.6C80.5732 19.6 81.2 20.2268 81.2 21ZM79.8 42C80.5732 42 81.2 41.3732 81.2 40.6C81.2 39.8268 80.5732 39.2 79.8 39.2C79.0268 39.2 78.4 39.8268 78.4 40.6C78.4 41.3732 79.0268 42 79.8 42ZM100.8 21C100.8 21.7732 100.173 22.4 99.4 22.4C98.6268 22.4 98 21.7732 98 21C98 20.2268 98.6268 19.6 99.4 19.6C100.173 19.6 100.8 20.2268 100.8 21ZM99.4 42C100.173 42 100.8 41.3732 100.8 40.6C100.8 39.8268 100.173 39.2 99.4 39.2C98.6268 39.2 98 39.8268 98 40.6C98 41.3732 98.6268 42 99.4 42ZM120.4 21C120.4 21.7732 119.773 22.4 119 22.4C118.227 22.4 117.6 21.7732 117.6 21C117.6 20.2268 118.227 19.6 119 19.6C119.773 19.6 120.4 20.2268 120.4 21ZM119 42C119.773 42 120.4 41.3732 120.4 40.6C120.4 39.8268 119.773 39.2 119 39.2C118.227 39.2 117.6 39.8268 117.6 40.6C117.6 41.3732 118.227 42 119 42ZM140 21C140 21.7732 139.373 22.4 138.6 22.4C137.827 22.4 137.2 21.7732 137.2 21C137.2 20.2268 137.827 19.6 138.6 19.6C139.373 19.6 140 20.2268 140 21ZM138.6 42C139.373 42 140 41.3732 140 40.6C140 39.8268 139.373 39.2 138.6 39.2C137.827 39.2 137.2 39.8268 137.2 40.6C137.2 41.3732 137.827 42 138.6 42ZM159.6 21C159.6 21.7732 158.973 22.4 158.2 22.4C157.427 22.4 156.8 21.7732 156.8 21C156.8 20.2268 157.427 19.6 158.2 19.6C158.973 19.6 159.6 20.2268 159.6 21ZM158.2 42C158.973 42 159.6 41.3732 159.6 40.6C159.6 39.8268 158.973 39.2 158.2 39.2C157.427 39.2 156.8 39.8268 156.8 40.6C156.8 41.3732 157.427 42 158.2 42ZM2.8 60.2C2.8 60.9732 2.1732 61.6 1.4 61.6C0.626801 61.6 0 60.9732 0 60.2C0 59.4268 0.626801 58.8 1.4 58.8C2.1732 58.8 2.8 59.4268 2.8 60.2ZM21 61.6C21.7732 61.6 22.4 60.9732 22.4 60.2C22.4 59.4268 21.7732 58.8 21 58.8C20.2268 58.8 19.6 59.4268 19.6 60.2C19.6 60.9732 20.2268 61.6 21 61.6ZM42 60.2C42 60.9732 41.3732 61.6 40.6 61.6C39.8268 61.6 39.2 60.9732 39.2 60.2C39.2 59.4268 39.8268 58.8 40.6 58.8C41.3732 58.8 42 59.4268 42 60.2ZM60.2 61.6C60.9732 61.6 61.6 60.9732 61.6 60.2C61.6 59.4268 60.9732 58.8 60.2 58.8C59.4268 58.8 58.8 59.4268 58.8 60.2C58.8 60.9732 59.4268 61.6 60.2 61.6ZM81.2 60.2C81.2 60.9732 80.5732 61.6 79.8 61.6C79.0268 61.6 78.4 60.9732 78.4 60.2C78.4 59.4268 79.0268 58.8 79.8 58.8C80.5732 58.8 81.2 59.4268 81.2 60.2ZM99.4 61.6C100.173 61.6 100.8 60.9732 100.8 60.2C100.8 59.4268 100.173 58.8 99.4 58.8C98.6268 58.8 98 59.4268 98 60.2C98 60.9732 98.6268 61.6 99.4 61.6ZM120.4 60.2C120.4 60.9732 119.773 61.6 119 61.6C118.227 61.6 117.6 60.9732 117.6 60.2C117.6 59.4268 118.227 58.8 119 58.8C119.773 58.8 120.4 59.4268 120.4 60.2ZM138.6 61.6C139.373 61.6 140 60.9732 140 60.2C140 59.4268 139.373 58.8 138.6 58.8C137.827 58.8 137.2 59.4268 137.2 60.2C137.2 60.9732 137.827 61.6 138.6 61.6ZM159.6 60.2C159.6 60.9732 158.973 61.6 158.2 61.6C157.427 61.6 156.8 60.9732 156.8 60.2C156.8 59.4268 157.427 58.8 158.2 58.8C158.973 58.8 159.6 59.4268 159.6 60.2ZM1.4 81.2C2.1732 81.2 2.8 80.5732 2.8 79.8C2.8 79.0268 2.1732 78.4 1.4 78.4C0.626801 78.4 0 79.0268 0 79.8C0 80.5732 0.626801 81.2 1.4 81.2ZM22.4 79.8C22.4 80.5732 21.7732 81.2 21 81.2C20.2268 81.2 19.6 80.5732 19.6 79.8C19.6 79.0268 20.2268 78.4 21 78.4C21.7732 78.4 22.4 79.0268 22.4 79.8ZM40.6 81.2C41.3732 81.2 42 80.5732 42 79.8C42 79.0268 41.3732 78.4 40.6 78.4C39.8268 78.4 39.2 79.0268 39.2 79.8C39.2 80.5732 39.8268 81.2 40.6 81.2ZM61.6 79.8C61.6 80.5732 60.9732 81.2 60.2 81.2C59.4268 81.2 58.8 80.5732 58.8 79.8C58.8 79.0268 59.4268 78.4 60.2 78.4C60.9732 78.4 61.6 79.0268 61.6 79.8ZM79.8 81.2C80.5732 81.2 81.2 80.5732 81.2 79.8C81.2 79.0268 80.5732 78.4 79.8 78.4C79.0268 78.4 78.4 79.0268 78.4 79.8C78.4 80.5732 79.0268 81.2 79.8 81.2ZM100.8 79.8C100.8 80.5732 100.173 81.2 99.4 81.2C98.6268 81.2 98 80.5732 98 79.8C98 79.0268 98.6268 78.4 99.4 78.4C100.173 78.4 100.8 79.0268 100.8 79.8ZM119 81.2C119.773 81.2 120.4 80.5732 120.4 79.8C120.4 79.0268 119.773 78.4 119 78.4C118.227 78.4 117.6 79.0268 117.6 79.8C117.6 80.5732 118.227 81.2 119 81.2ZM140 79.8C140 80.5732 139.373 81.2 138.6 81.2C137.827 81.2 137.2 80.5732 137.2 79.8C137.2 79.0268 137.827 78.4 138.6 78.4C139.373 78.4 140 79.0268 140 79.8ZM158.2 81.2C158.973 81.2 159.6 80.5732 159.6 79.8C159.6 79.0268 158.973 78.4 158.2 78.4C157.427 78.4 156.8 79.0268 156.8 79.8C156.8 80.5732 157.427 81.2 158.2 81.2Z" fill="#E2E5EB"/>
</svg>
