<svg width="34" height="34" viewBox="0 0 34 34" fill="none" xmlns="http://www.w3.org/2000/svg">
<path fill-rule="evenodd" clip-rule="evenodd" d="M30.6 3.4H32.3C33.2389 3.4 34 4.16112 34 5.1C34 6.03888 33.2389 6.8 32.3 6.8H30.6V8.5C30.6 9.43888 29.8389 10.2 28.9 10.2C27.9611 10.2 27.2 9.43888 27.2 8.5V6.8H25.5C24.5611 6.8 23.8 6.03888 23.8 5.1C23.8 4.16112 24.5611 3.4 25.5 3.4H27.2V1.7C27.2 0.761116 27.9611 0 28.9 0C29.8389 0 30.6 0.761116 30.6 1.7V3.4ZM27.2 15.3C27.2 14.3611 27.9611 13.6 28.9 13.6C29.3567 13.5909 29.7979 13.7659 30.1241 14.0857C30.4503 14.4055 30.6341 14.8432 30.634 15.3V29.291C30.643 31.3865 29.2517 33.2301 27.234 33.796C26.7925 33.9276 26.3347 33.9963 25.874 34H4.726C2.11977 33.9907 0.00932469 31.8802 0 29.274V8.5C0 5.68335 2.28335 3.4 5.1 3.4H18.7C19.6389 3.4 20.4 4.16112 20.4 5.1C20.4 6.03888 19.6389 6.8 18.7 6.8H5.1C4.16112 6.8 3.4 7.56112 3.4 8.5V18.037L5.916 15.504C7.76517 13.6694 10.7478 13.6694 12.597 15.504L16.813 19.737L18.003 18.53C19.8522 16.6954 22.8348 16.6954 24.684 18.53L27.2 21.046V15.3ZM3.4 28.9C3.4 29.8389 4.16112 30.6 5.1 30.6H22.882L10.183 17.918C9.66577 17.4037 8.83023 17.4037 8.313 17.918L3.4 22.831V28.9ZM27.2 28.9C27.1891 29.2292 27.0828 29.5481 26.894 29.818L19.21 22.1L20.417 20.91C20.6632 20.6587 21.0002 20.5171 21.352 20.5171C21.7038 20.5171 22.0408 20.6587 22.287 20.91L27.2 25.857V28.9Z" fill="black"/>
</svg>
