<svg width="32" height="32" viewBox="0 0 32 32" fill="none" xmlns="http://www.w3.org/2000/svg">
<path fill-rule="evenodd" clip-rule="evenodd" d="M9.51629 0H22.4277C27.675 0 31.9439 4.26899 31.944 9.51629V22.4277C31.944 27.675 27.675 31.944 22.4277 31.944H9.51629C4.26899 31.944 0 27.675 0 22.4277V9.51629C0 4.26899 4.26899 0 9.51629 0ZM22.4277 28.7304C25.9086 28.7304 28.7304 25.9086 28.7304 22.4277V9.51629C28.7304 6.03536 25.9086 3.21357 22.4277 3.21357H9.51629C6.03542 3.21357 3.21357 6.03536 3.21357 9.51629V22.4277C3.21357 25.9086 6.03542 28.7304 9.51629 28.7304H22.4277Z" fill="url(#paint0_linear)"/>
<path fill-rule="evenodd" clip-rule="evenodd" d="M7.71021 15.972C7.71021 11.4165 11.4165 7.71021 15.9721 7.71021C20.5277 7.71021 24.2339 11.4164 24.2339 15.972C24.2339 20.5276 20.5277 24.2339 15.9721 24.2339C11.4165 24.2339 7.71021 20.5275 7.71021 15.972ZM10.9238 15.9721C10.9238 18.7602 13.1839 21.0203 15.9721 21.0203C18.7601 21.0203 21.0203 18.7601 21.0203 15.9721C21.0203 13.1839 18.7602 10.9238 15.9721 10.9238C13.184 10.9238 10.9238 13.1839 10.9238 15.9721Z" fill="url(#paint1_linear)"/>
<circle cx="24.2499" cy="7.77219" r="1.97971" fill="url(#paint2_linear)"/>
<defs>
<linearGradient id="paint0_linear" x1="31.7735" y1="31.851" x2="31.7735" y2="0.248115" gradientUnits="userSpaceOnUse">
<stop stop-color="#E09B3D"/>
<stop offset="0.3" stop-color="#C74C4D"/>
<stop offset="0.6" stop-color="#C21975"/>
<stop offset="1" stop-color="#7024C4"/>
</linearGradient>
<linearGradient id="paint1_linear" x1="31.7736" y1="31.8511" x2="31.7736" y2="0.248176" gradientUnits="userSpaceOnUse">
<stop stop-color="#E09B3D"/>
<stop offset="0.3" stop-color="#C74C4D"/>
<stop offset="0.6" stop-color="#C21975"/>
<stop offset="1" stop-color="#7024C4"/>
</linearGradient>
<linearGradient id="paint2_linear" x1="40.0513" y1="31.851" x2="40.0513" y2="0.248134" gradientUnits="userSpaceOnUse">
<stop stop-color="#E09B3D"/>
<stop offset="0.3" stop-color="#C74C4D"/>
<stop offset="0.6" stop-color="#C21975"/>
<stop offset="1" stop-color="#7024C4"/>
</linearGradient>
</defs>
</svg>
