<svg width="127" height="17" viewBox="0 0 127 17" fill="none" xmlns="http://www.w3.org/2000/svg">
<path d="M16.548 0.935999V16H12.18V4.52H7.42L7.28 7.18C7.20533 9.15867 7.01867 10.8013 6.72 12.108C6.42133 13.4147 5.936 14.4413 5.264 15.188C4.592 15.9347 3.65867 16.308 2.464 16.308C1.82933 16.308 1.07333 16.196 0.196 15.972L0.42 12.388C0.718667 12.4253 0.933333 12.444 1.064 12.444C1.71733 12.444 2.20267 12.2107 2.52 11.744C2.856 11.2587 3.08 10.652 3.192 9.924C3.304 9.17733 3.388 8.19733 3.444 6.984L3.668 0.935999H16.548ZM28.8044 16.224C27.2178 16.224 25.7898 15.8973 24.5204 15.244C23.2698 14.572 22.2898 13.648 21.5804 12.472C20.8711 11.296 20.5164 9.96133 20.5164 8.468C20.5164 6.97467 20.8711 5.64 21.5804 4.464C22.2898 3.288 23.2698 2.37333 24.5204 1.72C25.7898 1.048 27.2178 0.712 28.8044 0.712C30.3911 0.712 31.8098 1.048 33.0604 1.72C34.3111 2.37333 35.2911 3.288 36.0004 4.464C36.7098 5.64 37.0644 6.97467 37.0644 8.468C37.0644 9.96133 36.7098 11.296 36.0004 12.472C35.2911 13.648 34.3111 14.572 33.0604 15.244C31.8098 15.8973 30.3911 16.224 28.8044 16.224ZM28.8044 12.64C29.9244 12.64 30.8391 12.2667 31.5484 11.52C32.2764 10.7547 32.6404 9.73733 32.6404 8.468C32.6404 7.19867 32.2764 6.19067 31.5484 5.444C30.8391 4.67867 29.9244 4.296 28.8044 4.296C27.6844 4.296 26.7604 4.67867 26.0324 5.444C25.3044 6.19067 24.9404 7.19867 24.9404 8.468C24.9404 9.73733 25.3044 10.7547 26.0324 11.52C26.7604 12.2667 27.6844 12.64 28.8044 12.64ZM53.1368 4.52H45.4088V16H41.0688V0.935999H53.1368V4.52ZM62.8787 16.224C61.292 16.224 59.864 15.8973 58.5947 15.244C57.344 14.572 56.364 13.648 55.6547 12.472C54.9453 11.296 54.5907 9.96133 54.5907 8.468C54.5907 6.97467 54.9453 5.64 55.6547 4.464C56.364 3.288 57.344 2.37333 58.5947 1.72C59.864 1.048 61.292 0.712 62.8787 0.712C64.4653 0.712 65.884 1.048 67.1347 1.72C68.3853 2.37333 69.3653 3.288 70.0747 4.464C70.784 5.64 71.1387 6.97467 71.1387 8.468C71.1387 9.96133 70.784 11.296 70.0747 12.472C69.3653 13.648 68.3853 14.572 67.1347 15.244C65.884 15.8973 64.4653 16.224 62.8787 16.224ZM62.8787 12.64C63.9987 12.64 64.9133 12.2667 65.6227 11.52C66.3507 10.7547 66.7147 9.73733 66.7147 8.468C66.7147 7.19867 66.3507 6.19067 65.6227 5.444C64.9133 4.67867 63.9987 4.296 62.8787 4.296C61.7587 4.296 60.8347 4.67867 60.1067 5.444C59.3787 6.19067 59.0147 7.19867 59.0147 8.468C59.0147 9.73733 59.3787 10.7547 60.1067 11.52C60.8347 12.2667 61.7587 12.64 62.8787 12.64ZM87.2521 4.52H82.1561V16H77.8161V4.52H72.7201V0.935999H87.2521V4.52ZM90.5805 0.935999H94.9205V9.896L102.256 0.935999H106.26V16H101.92V7.04L94.6125 16H90.5805V0.935999ZM126.439 0.935999V16H122.071V4.52H115.799V16H111.459V0.935999H126.439Z" fill="#8E8E93"/>
</svg>
