<svg width="252" height="48" viewBox="0 0 252 48" fill="none" xmlns="http://www.w3.org/2000/svg">
<path d="M81.1743 17.1843H73.0747L73.099 31H69.1829V13.9737H81.1986L81.1743 17.1843ZM93.2625 31.2919C91.495 31.2919 89.8978 30.9108 88.4708 30.1487C87.0601 29.3866 85.9493 28.3406 85.1385 27.011C84.344 25.6651 83.9467 24.157 83.9467 22.4868C83.9467 20.8166 84.344 19.3167 85.1385 17.987C85.9493 16.6411 87.0601 15.5871 88.4708 14.825C89.8978 14.0628 91.495 13.6818 93.2625 13.6818C95.03 13.6818 96.6191 14.0628 98.0299 14.825C99.4406 15.5871 100.551 16.6411 101.362 17.987C102.173 19.3167 102.578 20.8166 102.578 22.4868C102.578 24.157 102.173 25.6651 101.362 27.011C100.551 28.3406 99.4406 29.3866 98.0299 30.1487C96.6191 30.9108 95.03 31.2919 93.2625 31.2919ZM93.2625 27.9353C94.2679 27.9353 95.176 27.7082 95.9867 27.2542C96.7975 26.784 97.4299 26.1353 97.884 25.3083C98.3542 24.4813 98.5893 23.5408 98.5893 22.4868C98.5893 21.4328 98.3542 20.4923 97.884 19.6653C97.4299 18.8383 96.7975 18.1978 95.9867 17.7438C95.176 17.2735 94.2679 17.0384 93.2625 17.0384C92.2572 17.0384 91.3491 17.2735 90.5383 17.7438C89.7275 18.1978 89.087 18.8383 88.6168 19.6653C88.1627 20.4923 87.9357 21.4328 87.9357 22.4868C87.9357 23.5408 88.1627 24.4813 88.6168 25.3083C89.087 26.1353 89.7275 26.784 90.5383 27.2542C91.3491 27.7082 92.2572 27.9353 93.2625 27.9353ZM116.255 13.9737C117.763 13.9737 119.069 14.225 120.171 14.7277C121.29 15.2304 122.15 15.9439 122.749 16.8681C123.349 17.7924 123.649 18.887 123.649 20.1518C123.649 21.4004 123.349 22.4949 122.749 23.4354C122.15 24.3597 121.29 25.0732 120.171 25.5759C119.069 26.0624 117.763 26.3056 116.255 26.3056H112.826V31H108.885V13.9737H116.255ZM116.036 23.0949C117.22 23.0949 118.12 22.8436 118.736 22.3409C119.352 21.822 119.66 21.0923 119.66 20.1518C119.66 19.1951 119.352 18.4654 118.736 17.9627C118.12 17.4438 117.22 17.1843 116.036 17.1843H112.826V23.0949H116.036ZM137.882 31.2919C136.114 31.2919 134.517 30.9108 133.09 30.1487C131.679 29.3866 130.568 28.3406 129.758 27.011C128.963 25.6651 128.566 24.157 128.566 22.4868C128.566 20.8166 128.963 19.3167 129.758 17.987C130.568 16.6411 131.679 15.5871 133.09 14.825C134.517 14.0628 136.114 13.6818 137.882 13.6818C139.649 13.6818 141.238 14.0628 142.649 14.825C144.06 15.5871 145.171 16.6411 145.981 17.987C146.792 19.3167 147.198 20.8166 147.198 22.4868C147.198 24.157 146.792 25.6651 145.981 27.011C145.171 28.3406 144.06 29.3866 142.649 30.1487C141.238 30.9108 139.649 31.2919 137.882 31.2919ZM137.882 27.9353C138.887 27.9353 139.795 27.7082 140.606 27.2542C141.417 26.784 142.049 26.1353 142.503 25.3083C142.973 24.4813 143.209 23.5408 143.209 22.4868C143.209 21.4328 142.973 20.4923 142.503 19.6653C142.049 18.8383 141.417 18.1978 140.606 17.7438C139.795 17.2735 138.887 17.0384 137.882 17.0384C136.876 17.0384 135.968 17.2735 135.158 17.7438C134.347 18.1978 133.706 18.8383 133.236 19.6653C132.782 20.4923 132.555 21.4328 132.555 22.4868C132.555 23.5408 132.782 24.4813 133.236 25.3083C133.706 26.1353 134.347 26.784 135.158 27.2542C135.968 27.7082 136.876 27.9353 137.882 27.9353ZM168.332 24.1408H165.851V31H161.984V24.1408H159.454L155.635 31H151.087L156.195 22.0977L151.403 13.9737H155.562L159.381 20.8572H161.984V13.9737H165.851V20.8572H168.381L172.224 13.9737H176.383L171.616 22.0977L176.699 31H172.151L168.332 24.1408ZM193.056 27.3515H185.151L183.643 31H179.605L187.194 13.9737H191.086L198.699 31H194.564L193.056 27.3515ZM191.815 24.3597L189.116 17.8411L186.416 24.3597H191.815ZM219.844 13.9737V31H215.903V24.0192H208.169V31H204.228V13.9737H208.169V20.6869H215.903V13.9737H219.844ZM240.564 27.838V31H227.381V13.9737H240.248V17.1357H231.297V20.8328H239.202V23.8976H231.297V27.838H240.564ZM246.167 13.9737H250.691L249.937 25.0894H246.921L246.167 13.9737ZM248.429 31.1946C247.764 31.1946 247.205 30.9838 246.751 30.5622C246.313 30.1244 246.094 29.5974 246.094 28.9812C246.094 28.365 246.313 27.8542 246.751 27.4488C247.189 27.0272 247.748 26.8164 248.429 26.8164C249.11 26.8164 249.67 27.0272 250.107 27.4488C250.545 27.8542 250.764 28.365 250.764 28.9812C250.764 29.5974 250.537 30.1244 250.083 30.5622C249.645 30.9838 249.094 31.1946 248.429 31.1946Z" fill="black"/>
<rect width="48" height="48" rx="8" fill="#FFE65A"/>
<path fill-rule="evenodd" clip-rule="evenodd" d="M12.9756 36.7184C12.9756 37.1178 12.6528 37.4415 12.2548 37.4415C11.8568 37.4415 11.5342 37.1178 11.5342 36.7184L11.5329 28.2287C11.5329 27.9481 11.6923 27.7049 11.9252 27.5851L16.6103 25.0784C16.9614 24.8906 17.398 25.0238 17.5852 25.376C17.6429 25.4846 17.6703 25.6013 17.6701 25.7163H17.6729V35.996L20.9123 35.9962L20.909 21.9881C20.909 21.7106 21.0652 21.4697 21.2939 21.3485L21.2933 21.3474L25.9383 18.8765C26.291 18.6902 26.7276 18.826 26.9133 19.18C26.9698 19.2874 26.9966 19.4033 26.9965 19.5172H26.998V35.9958L30.2831 35.9955L30.283 23.3564C30.283 22.9572 30.6056 22.6337 31.0036 22.6337C31.1296 22.6337 31.2479 22.6658 31.3509 22.7229L35.9302 25.1743C36.1782 25.3067 36.3172 25.5638 36.3118 25.8275L36.313 36.7179C36.313 37.1171 35.9902 37.4409 35.5924 37.4409C35.1944 37.4409 34.8718 37.1171 34.8718 36.7179L34.8705 26.2459L31.7242 24.5617L31.7244 36.7183C31.7244 37.1175 31.4018 37.4412 31.0036 37.4412L26.3384 37.4415C26.3173 37.4434 26.296 37.4444 26.2745 37.4444C25.875 37.4444 25.5508 37.1194 25.5508 36.7184V20.7218L22.3504 22.4244L22.3539 36.719C22.3539 37.1182 22.0311 37.4419 21.6331 37.4419H17.0131C16.9921 37.4437 16.9708 37.4447 16.9495 37.4447C16.5498 37.4447 16.2258 37.1198 16.2258 36.719V26.9226L12.9744 28.6625L12.9756 36.7184Z" fill="#151616" stroke="black"/>
<path fill-rule="evenodd" clip-rule="evenodd" d="M14.4639 16.1284C15.4204 16.1284 16.2865 16.5162 16.913 17.143C17.5402 17.7698 17.9278 18.6359 17.9278 19.5924C17.9278 20.5489 17.5402 21.4149 16.913 22.0416C16.2865 22.6684 15.4204 23.0562 14.4639 23.0562C13.5075 23.0562 12.6413 22.6684 12.0146 22.0416C11.3878 21.4149 11 20.5489 11 19.5924C11 18.6359 11.3878 17.7698 12.0146 17.143C12.6413 16.5162 13.5075 16.1284 14.4639 16.1284ZM16.0294 18.027C15.6288 17.6264 15.0752 17.3784 14.4639 17.3784C13.8526 17.3784 13.299 17.6264 12.8984 18.027C12.498 18.4274 12.25 18.981 12.25 19.5924C12.25 20.2037 12.498 20.7572 12.8984 21.1578C13.299 21.5584 13.8526 21.8062 14.4639 21.8062C15.0752 21.8062 15.6288 21.5584 16.0294 21.1578C16.4299 20.7572 16.6778 20.2037 16.6778 19.5924C16.6778 18.981 16.4299 18.4274 16.0294 18.027Z" fill="#151616"/>
<path d="M16.913 17.143L16.5594 17.4965L16.5596 17.4966L16.913 17.143ZM16.913 22.0416L16.5596 21.6879L16.5594 21.6881L16.913 22.0416ZM12.0146 22.0416L12.3682 21.6881L12.3681 21.688L12.0146 22.0416ZM12.0146 17.143L12.3682 17.4966L12.3682 17.4965L12.0146 17.143ZM12.8984 18.027L13.252 18.3805L13.252 18.3805L12.8984 18.027ZM12.8984 21.1578L12.5448 21.5113L12.5449 21.5114L12.8984 21.1578ZM16.0294 21.1578L16.3829 21.5114L16.383 21.5114L16.0294 21.1578ZM14.4639 16.6284C15.2825 16.6284 16.0228 16.9597 16.5594 17.4965L17.2667 16.7895C16.5501 16.0727 15.5583 15.6284 14.4639 15.6284V16.6284ZM16.5596 17.4966C17.0966 18.0335 17.4278 18.7738 17.4278 19.5924H18.4278C18.4278 18.498 17.9837 17.5062 17.2665 16.7894L16.5596 17.4966ZM17.4278 19.5924C17.4278 20.411 17.0966 21.1513 16.5596 21.6879L17.2665 22.3953C17.9837 21.6786 18.4278 20.6868 18.4278 19.5924H17.4278ZM16.5594 21.6881C16.0228 22.2249 15.2825 22.5562 14.4639 22.5562V23.5562C15.5583 23.5562 16.5501 23.1119 17.2667 22.3951L16.5594 21.6881ZM14.4639 22.5562C13.6454 22.5562 12.9049 22.2249 12.3682 21.6881L11.661 22.3951C12.3777 23.1119 13.3696 23.5562 14.4639 23.5562V22.5562ZM12.3681 21.688C11.8312 21.1513 11.5 20.4109 11.5 19.5924H10.5C10.5 20.6868 10.9443 21.6786 11.6611 22.3952L12.3681 21.688ZM11.5 19.5924C11.5 18.7738 11.8312 18.0335 12.3682 17.4966L11.6611 16.7894C10.9443 17.5062 10.5 18.498 10.5 19.5924H11.5ZM12.3682 17.4965C12.9049 16.9597 13.6454 16.6284 14.4639 16.6284V15.6284C13.3696 15.6284 12.3777 16.0727 11.661 16.7895L12.3682 17.4965ZM16.3829 17.6734C15.8924 17.1829 15.2132 16.8784 14.4639 16.8784V17.8784C14.9372 17.8784 15.3651 18.0698 15.6758 18.3805L16.3829 17.6734ZM14.4639 16.8784C13.7146 16.8784 13.0353 17.1829 12.5449 17.6734L13.252 18.3805C13.5626 18.0698 13.9906 17.8784 14.4639 17.8784V16.8784ZM12.5449 17.6734C12.0545 18.1637 11.75 18.843 11.75 19.5924H12.75C12.75 19.1189 12.9415 18.691 13.252 18.3805L12.5449 17.6734ZM11.75 19.5924C11.75 20.3417 12.0545 21.0209 12.5448 21.5113L13.252 20.8044C12.9414 20.4936 12.75 20.0657 12.75 19.5924H11.75ZM12.5449 21.5114C13.0354 22.0019 13.7147 22.3062 14.4639 22.3062V21.3062C13.9905 21.3062 13.5626 21.1149 13.252 20.8043L12.5449 21.5114ZM14.4639 22.3062C15.2131 22.3062 15.8924 22.0019 16.3829 21.5114L15.6759 20.8043C15.3652 21.1149 14.9373 21.3062 14.4639 21.3062V22.3062ZM16.383 21.5114C16.8734 21.0209 17.1778 20.3416 17.1778 19.5924H16.1778C16.1778 20.0658 15.9865 20.4936 15.6758 20.8043L16.383 21.5114ZM17.1778 19.5924C17.1778 18.8431 16.8735 18.1637 16.3829 17.6733L15.6759 18.3806C15.9864 18.691 16.1778 19.1189 16.1778 19.5924H17.1778Z" fill="black"/>
<path fill-rule="evenodd" clip-rule="evenodd" d="M24.0561 10C25.0125 10 25.8788 10.3877 26.5055 11.0146C27.1324 11.6414 27.5201 12.5075 27.5201 13.4639C27.5201 14.4203 27.1324 15.2864 26.5055 15.9134C25.8788 16.54 25.0125 16.9278 24.0561 16.9278C23.0997 16.9278 22.2335 16.54 21.6069 15.9134C20.9799 15.2864 20.5923 14.4203 20.5923 13.4639C20.5923 12.5074 20.9799 11.6412 21.6069 11.0146C22.2335 10.3877 23.0997 10 24.0561 10ZM25.6217 11.8984C25.2212 11.4979 24.6674 11.2498 24.0561 11.2498C23.4448 11.2498 22.8912 11.4979 22.4907 11.8984C22.0903 12.2989 21.8423 12.8526 21.8423 13.4639C21.8423 14.0752 22.0903 14.6288 22.4907 15.0293C22.8912 15.4299 23.4448 15.6777 24.0561 15.6777C24.6674 15.6777 25.2212 15.4299 25.6217 15.0293C26.0223 14.6288 26.2701 14.0752 26.2701 13.4639C26.2701 12.8526 26.0223 12.2989 25.6217 11.8984Z" fill="#151616"/>
<path d="M26.5055 11.0146L26.1519 11.3681L26.152 11.3681L26.5055 11.0146ZM26.5055 15.9134L26.859 16.267L26.8591 16.2669L26.5055 15.9134ZM21.6069 15.9134L21.9605 15.5599L21.9605 15.5599L21.6069 15.9134ZM21.6069 11.0146L21.9604 11.3682L21.9605 11.368L21.6069 11.0146ZM22.4907 11.8984L22.1372 11.5448L22.1371 11.5449L22.4907 11.8984ZM22.4907 15.0293L22.1371 15.3828L22.1371 15.3829L22.4907 15.0293ZM24.0561 10.5C24.8746 10.5 25.6152 10.8312 26.1519 11.3681L26.8591 10.661C26.1424 9.94419 25.1504 9.5 24.0561 9.5V10.5ZM26.152 11.3681C26.6889 11.905 27.0201 12.6454 27.0201 13.4639H28.0201C28.0201 12.3695 27.5759 11.3778 26.859 10.661L26.152 11.3681ZM27.0201 13.4639C27.0201 14.2824 26.6889 15.0228 26.1519 15.5599L26.8591 16.2669C27.5759 15.55 28.0201 14.5583 28.0201 13.4639H27.0201ZM26.152 15.5598C25.6152 16.0965 24.8746 16.4278 24.0561 16.4278V17.4278C25.1504 17.4278 26.1424 16.9835 26.859 16.267L26.152 15.5598ZM24.0561 16.4278C23.2376 16.4278 22.4971 16.0965 21.9605 15.5599L21.2533 16.2669C21.9699 16.9835 22.9618 17.4278 24.0561 17.4278V16.4278ZM21.9605 15.5599C21.4234 15.0228 21.0923 14.2824 21.0923 13.4639H20.0923C20.0923 14.5582 20.5364 15.55 21.2534 16.267L21.9605 15.5599ZM21.0923 13.4639C21.0923 12.6452 21.4235 11.9048 21.9604 11.3682L21.2535 10.6609C20.5364 11.3775 20.0923 12.3695 20.0923 13.4639H21.0923ZM21.9605 11.368C22.4971 10.8312 23.2375 10.5 24.0561 10.5V9.5C22.9618 9.5 21.9698 9.94419 21.2533 10.6611L21.9605 11.368ZM25.9752 11.5448C25.4848 11.0545 24.8054 10.7498 24.0561 10.7498V11.7498C24.5294 11.7498 24.9575 11.9414 25.2682 12.252L25.9752 11.5448ZM24.0561 10.7498C23.3068 10.7498 22.6275 11.0545 22.1372 11.5448L22.8442 12.252C23.1549 11.9413 23.5829 11.7498 24.0561 11.7498V10.7498ZM22.1371 11.5449C21.6468 12.0353 21.3423 12.7146 21.3423 13.4639H22.3423C22.3423 12.9905 22.5337 12.5626 22.8443 12.2519L22.1371 11.5449ZM21.3423 13.4639C21.3423 14.2132 21.6468 14.8924 22.1371 15.3828L22.8443 14.6759C22.5337 14.3652 22.3423 13.9372 22.3423 13.4639H21.3423ZM22.1371 15.3829C22.6276 15.8734 23.3069 16.1777 24.0561 16.1777V15.1777C23.5828 15.1777 23.1548 14.9864 22.8442 14.6758L22.1371 15.3829ZM24.0561 16.1777C24.8053 16.1777 25.4848 15.8734 25.9753 15.3829L25.2682 14.6758C24.9576 14.9864 24.5295 15.1777 24.0561 15.1777V16.1777ZM25.9753 15.3829C26.4658 14.8924 26.7701 14.2131 26.7701 13.4639H25.7701C25.7701 13.9373 25.5788 14.3652 25.2682 14.6758L25.9753 15.3829ZM26.7701 13.4639C26.7701 12.7146 26.4658 12.0353 25.9753 11.5448L25.2682 12.2519C25.5788 12.5625 25.7701 12.9905 25.7701 13.4639H26.7701Z" fill="black"/>
<path fill-rule="evenodd" clip-rule="evenodd" d="M33.1156 13.4639C34.072 13.4639 34.9382 13.8516 35.5649 14.4785C36.1917 15.105 36.5795 15.9712 36.5795 16.9277C36.5795 17.8843 36.1917 18.7503 35.5649 19.377C34.9382 20.0039 34.072 20.3916 33.1156 20.3916C32.1591 20.3916 31.293 20.0039 30.6665 19.377C30.0393 18.7503 29.6517 17.8843 29.6517 16.9277C29.6517 15.9712 30.0393 15.105 30.6665 14.4785C31.293 13.8516 32.1591 13.4639 33.1156 13.4639ZM34.6811 15.3623C34.2805 14.9618 33.7269 14.7137 33.1156 14.7137C32.5043 14.7137 31.9507 14.9618 31.5501 15.3623C31.1495 15.7628 30.9017 16.3166 30.9017 16.9277C30.9017 17.539 31.1495 18.0926 31.5501 18.4932C31.9507 18.8935 32.5043 19.1416 33.1156 19.1416C33.7269 19.1416 34.2805 18.8935 34.6811 18.4932C35.0815 18.0926 35.3295 17.539 35.3295 16.9277C35.3295 16.3166 35.0815 15.7628 34.6811 15.3623Z" fill="#151616"/>
<path d="M35.5649 14.4785L35.2113 14.832L35.2114 14.8321L35.5649 14.4785ZM35.5649 19.377L35.2114 19.0234L35.2113 19.0235L35.5649 19.377ZM30.6665 19.377L31.0201 19.0236L31.0199 19.0234L30.6665 19.377ZM30.6665 14.4785L31.0198 14.8322L31.0201 14.8319L30.6665 14.4785ZM31.5501 15.3623L31.1966 15.0086L31.1966 15.0087L31.5501 15.3623ZM31.5501 18.4932L31.1966 18.8468L31.1967 18.8469L31.5501 18.4932ZM34.6811 18.4932L35.0345 18.8469L35.0347 18.8467L34.6811 18.4932ZM33.1156 13.9639C33.934 13.9639 34.6745 14.2951 35.2113 14.832L35.9185 14.125C35.2018 13.4081 34.2099 12.9639 33.1156 12.9639V13.9639ZM35.2114 14.8321C35.7482 15.3687 36.0795 16.1091 36.0795 16.9277H37.0795C37.0795 15.8333 36.6352 14.8414 35.9183 14.1248L35.2114 14.8321ZM36.0795 16.9277C36.0795 17.7463 35.7482 18.4867 35.2114 19.0234L35.9184 19.7306C36.6352 19.014 37.0795 18.0222 37.0795 16.9277H36.0795ZM35.2113 19.0235C34.6745 19.5604 33.934 19.8916 33.1156 19.8916V20.8916C34.2099 20.8916 35.2018 20.4474 35.9185 19.7305L35.2113 19.0235ZM33.1156 19.8916C32.297 19.8916 31.5567 19.5604 31.0201 19.0236L30.3128 19.7305C31.0294 20.4474 32.0212 20.8916 33.1156 20.8916V19.8916ZM31.0199 19.0234C30.4828 18.4867 30.1517 17.7464 30.1517 16.9277H29.1517C29.1517 18.0221 29.5958 19.014 30.313 19.7307L31.0199 19.0234ZM30.1517 16.9277C30.1517 16.1091 30.4829 15.3687 31.0198 14.8322L30.3131 14.1248C29.5958 14.8414 29.1517 15.8334 29.1517 16.9277H30.1517ZM31.0201 14.8319C31.5567 14.2951 32.297 13.9639 33.1156 13.9639V12.9639C32.0212 12.9639 31.0294 13.4081 30.3128 14.125L31.0201 14.8319ZM35.0346 15.0086C34.5442 14.5185 33.865 14.2137 33.1156 14.2137V15.2137C33.5888 15.2137 34.0168 15.4052 34.3276 15.7159L35.0346 15.0086ZM33.1156 14.2137C32.3662 14.2137 31.687 14.5184 31.1966 15.0086L31.9036 15.7159C32.2144 15.4052 32.6424 15.2137 33.1156 15.2137V14.2137ZM31.1966 15.0087C30.706 15.4992 30.4017 16.1787 30.4017 16.9277H31.4017C31.4017 16.4544 31.5931 16.0264 31.9037 15.7158L31.1966 15.0087ZM30.4017 16.9277C30.4017 17.6769 30.706 18.3562 31.1966 18.8468L31.9037 18.1396C31.593 17.829 31.4017 17.4011 31.4017 16.9277H30.4017ZM31.1967 18.8469C31.6871 19.3369 32.3663 19.6416 33.1156 19.6416V18.6416C32.6423 18.6416 32.2143 18.4501 31.9036 18.1395L31.1967 18.8469ZM33.1156 19.6416C33.865 19.6416 34.5441 19.3369 35.0345 18.8469L34.3277 18.1395C34.0168 18.4501 33.5889 18.6416 33.1156 18.6416V19.6416ZM35.0347 18.8467C35.525 18.3563 35.8295 17.677 35.8295 16.9277H34.8295C34.8295 17.401 34.6381 17.829 34.3275 18.1397L35.0347 18.8467ZM35.8295 16.9277C35.8295 16.1786 35.525 15.4992 35.0347 15.0088L34.3275 15.7157C34.638 16.0264 34.8295 16.4545 34.8295 16.9277H35.8295Z" fill="black"/>
</svg>
