<svg width="33" height="33" viewBox="0 0 33 33" fill="none" xmlns="http://www.w3.org/2000/svg">
<path fill-rule="evenodd" clip-rule="evenodd" d="M32.5305 30.2314L26.5238 24.2734C31.3651 18.237 30.6439 9.46922 24.8813 4.30506C19.1187 -0.859098 10.3247 -0.618461 4.85311 4.85311C-0.618461 10.3247 -0.859098 19.1187 4.30506 24.8813C9.46922 30.6439 18.237 31.3651 24.2734 26.5238L30.2314 32.4819C30.5355 32.7884 30.9493 32.9608 31.381 32.9608C31.8127 32.9608 32.2265 32.7884 32.5305 32.4819C33.1371 31.8544 33.1371 30.859 32.5305 30.2314ZM21.6667 13.5714H16.8095V8.71431C16.8095 7.82013 16.0847 7.09526 15.1905 7.09526C14.2963 7.09526 13.5714 7.82013 13.5714 8.71431V13.5714H8.71431C7.82013 13.5714 7.09526 14.2963 7.09526 15.1905C7.09526 16.0847 7.82013 16.8095 8.71431 16.8095H13.5714V21.6667C13.5714 22.5609 14.2963 23.2857 15.1905 23.2857C16.0847 23.2857 16.8095 22.5609 16.8095 21.6667V16.8095H21.6667C22.5609 16.8095 23.2857 16.0847 23.2857 15.1905C23.2857 14.2963 22.5609 13.5714 21.6667 13.5714ZM3.85716 15.1905C3.85716 21.4497 8.93127 26.5238 15.1905 26.5238C18.1963 26.5238 21.079 25.3298 23.2044 23.2044C25.3298 21.079 26.5238 18.1963 26.5238 15.1905C26.5238 8.93127 21.4497 3.85716 15.1905 3.85716C8.93127 3.85716 3.85716 8.93127 3.85716 15.1905Z" fill="black"/>
</svg>
