<svg width="32" height="32" viewBox="0 0 32 32" fill="none" xmlns="http://www.w3.org/2000/svg">
<rect width="32" height="32" rx="16" fill="#80A7D5"/>
<path fill-rule="evenodd" clip-rule="evenodd" d="M4.17801 14.7214L23.62 7.14511C24.36 6.85675 25.1247 7.50441 24.9622 8.28176L21.6428 24.1516C21.4871 24.8963 20.6136 25.2308 20.0003 24.7806L14.9885 21.1018L12.4341 23.7099C11.9859 24.1676 11.2114 23.9824 11.0188 23.3713L9.17507 17.5208L4.23466 16.0619C3.58643 15.8705 3.54828 14.9669 4.17801 14.7214ZM12.1518 18.6529L21.1825 10.667C21.3987 10.4759 21.1476 10.1383 20.9023 10.2905L10.238 16.9046C10.0503 17.021 9.96487 17.2497 10.0304 17.4607L11.4609 22.0701C11.491 22.167 11.632 22.1537 11.6434 22.0529L11.9911 18.9621C12.0045 18.8427 12.0618 18.7325 12.1518 18.6529Z" fill="white"/>
</svg>
