<svg width="29" height="32" viewBox="0 0 29 32" fill="none" xmlns="http://www.w3.org/2000/svg">
<path d="M17.6036 0H11.2152C5.05072 0 0.0356445 5.01508 0.0356445 11.1796V15.9709C0.0356445 20.2987 2.53164 24.2262 6.42398 26.0737V31.4093C6.42398 31.8726 7.00354 32.1148 7.33277 31.7858L11.968 27.1505H17.6035C23.768 27.1505 28.7831 22.1354 28.7831 15.9709V11.1796C28.7831 5.01508 23.768 0 17.6036 0Z" fill="#665CAC"/>
<path d="M8.02105 26.0736C4.12871 24.2261 1.63271 20.2987 1.63271 15.9708V11.1795C1.63271 5.01508 6.64785 0 12.8123 0H11.2152C5.05072 0 0.0356445 5.01508 0.0356445 11.1796V15.9709C0.0356445 20.2987 2.53164 24.2262 6.42398 26.0737V31.4093C6.42398 31.8726 7.00354 32.1148 7.33277 31.7858L8.02105 31.0975V26.0736Z" fill="#523494"/>
<path d="M22.4468 19.8425L21.9681 17.2497C21.9285 17.0355 21.7626 16.867 21.549 16.8243L17.7847 16.0714C17.6098 16.0366 17.4297 16.0912 17.3038 16.217L15.7744 17.7464C13.1977 16.5919 11.7676 15.1587 10.5093 12.4713L12.0337 10.947C12.1596 10.8211 12.2142 10.6406 12.1793 10.4661L11.4265 6.70167C11.3838 6.48815 11.2153 6.3221 11.0011 6.28255L8.40826 5.80399C8.33727 5.79095 8.26416 5.79232 8.19368 5.80836C7.50908 5.96386 6.88442 6.30882 6.3872 6.80616C5.52626 7.6671 5.19722 8.9234 5.43575 10.4392C5.83616 12.9847 7.08322 16.527 9.38404 18.837L9.41548 18.8682C11.7237 21.1674 15.2661 22.4146 17.8116 22.8151C18.1323 22.8656 18.4412 22.8906 18.7373 22.8906C19.8411 22.8906 20.7659 22.5424 21.4449 21.8636C21.9421 21.3663 22.2871 20.7416 22.4426 20.0572C22.4584 19.9866 22.4599 19.9136 22.4468 19.8425Z" fill="white"/>
<path d="M11.5131 11.4675L12.0336 10.947L12.0342 10.9464L11.5131 11.4675L11.5131 11.4675Z" fill="#E5E5E5"/>
<path d="M16.7782 16.7609L17.3038 16.2353L17.3039 16.2354L16.7783 16.761L16.7782 16.7609Z" fill="#E5E5E5"/>
<path d="M19.741 21.8867C19.4448 21.8867 19.136 21.8617 18.8153 21.8112C16.2698 21.4107 12.7275 20.1635 10.4191 17.8643L10.3877 17.8331C8.08689 15.5231 6.83983 11.9807 6.43942 9.43533C6.24673 8.21066 6.42489 7.15553 6.95441 6.34131C6.75162 6.47661 6.56131 6.6318 6.38696 6.80615C5.52602 7.66709 5.19697 8.92339 5.43551 10.4392C5.83591 12.9846 7.08298 16.527 9.38379 18.837L9.41523 18.8682C11.7235 21.1674 15.2659 22.4146 17.8114 22.8151C18.1321 22.8656 18.4409 22.8906 18.7371 22.8906C19.8409 22.8906 20.7656 22.5425 21.4446 21.8636C21.6189 21.6892 21.7741 21.499 21.9094 21.2962C21.3083 21.6871 20.5759 21.8867 19.741 21.8867Z" fill="#E5E5E5"/>
<path d="M15.474 9.05017C15.18 9.05017 14.9417 9.28852 14.9417 9.58251C14.9417 9.87649 15.18 10.1148 15.474 10.1148C16.6482 10.1148 17.6035 11.0701 17.6035 12.2443C17.6035 12.5344 17.8457 12.7766 18.1358 12.7766C18.4258 12.7766 18.6681 12.5344 18.6681 12.2443C18.6682 10.483 17.2353 9.05017 15.474 9.05017Z" fill="white"/>
<path d="M15.474 6.92065C15.2771 6.92065 15.0783 6.93157 14.8832 6.95309C14.591 6.98534 14.3802 7.24839 14.4124 7.54069C14.4447 7.833 14.7083 8.04321 15 8.01146C15.1565 7.99418 15.3159 7.98539 15.474 7.98539C17.8223 7.98539 19.7329 9.89591 19.7329 12.2443C19.7329 12.4024 19.7241 12.5618 19.7068 12.7183C19.675 13.0065 19.8892 13.2741 20.1776 13.3059C20.4659 13.3376 20.7333 13.1235 20.7652 12.8351C20.7867 12.64 20.7976 12.4412 20.7976 12.2443C20.7976 9.30886 18.4094 6.92065 15.474 6.92065Z" fill="white"/>
<path d="M15.4741 4.79126C15.2838 4.79126 15.0911 4.7985 14.9015 4.8129C14.6083 4.83511 14.3886 5.09086 14.4108 5.38398C14.433 5.67715 14.6896 5.89685 14.9819 5.87464C15.1449 5.86223 15.3105 5.85599 15.4741 5.85599C18.9966 5.85599 21.8624 8.72177 21.8624 12.2443C21.8624 12.7427 21.8049 13.2389 21.6915 13.7189C21.6264 13.994 21.7959 14.28 22.0686 14.3547C22.3556 14.4333 22.6593 14.2533 22.7277 13.9638C22.86 13.4036 22.9272 12.8251 22.9272 12.2443C22.9272 8.13467 19.5837 4.79126 15.4741 4.79126Z" fill="white"/>
</svg>
